# xmcd
# Copyright (C) 1995-1998 Ti Kan
#
# Track frame offsets:
#       150
#       18723
#       30554
#       43558
#       57133
#       68408
#       80507
#       93663
#       105690
#       117988
#       127975
#       142128
#       152891
#       165473
#       177897
#       190324
#
# Disc length: 2732 seconds
#
# Revision: 0
# Processed by: cddbd v1.5.1PL2 Copyright (c) Steve Scherf et al.
# Submitted via: CD-Transfer v1.0
#
DISCID=d50aaa10
DTITLE=Orig. Almrauschklang - 
DYEAR=1900
DGENRE=
TTITLE0=Mei Hoamat (06)
TTITLE1=Almrausch Boarischer (06)
TTITLE2=Sunnseit-Boraischer (06)
TTITLE3=Du Machst Mich Ganz Verrückt (06)
TTITLE4=Mei Ziacha Und I (06)
TTITLE5=Für´s Schatzei (06)
TTITLE6=Darling Nur Du (06)
TTITLE7=Conny Walzer (06)
TTITLE8=Geht´s Dir Gut (06)
TTITLE9=Doggl-Boarischer (06)
TTITLE10=Romantische Saxophone (06)
TTITLE11=Ein Stück Vom Glück (06)
TTITLE12=Leis Klingt´s Übers Tal (06)
TTITLE13=
TTITLE14=Saxparty (06)
TTITLE15=Für`n Raimund (06)
EXTD=
EXTT0=
EXTT1=
EXTT2=
EXTT3=
EXTT4=
EXTT5=
EXTT6=
EXTT7=
EXTT8=
EXTT9=
EXTT10=
EXTT11=
EXTT12=
EXTT13=
EXTT14=
EXTT15=
PLAYORDER=
